<?xml version="1.0" encoding="utf-8"?>
<!-- Generator: Adobe Illustrator 26.2.1, SVG Export Plug-In . SVG Version: 6.00 Build 0)  -->
<svg version="1.1" id="Capa_1" xmlns="http://www.w3.org/2000/svg" xmlns:xlink="http://www.w3.org/1999/xlink" x="0px" y="0px"
	 viewBox="0 0 714 724" style="enable-background:new 0 0 714 724;" xml:space="preserve">
<style type="text/css">
	.st0{fill:#FEBF16;}
</style>
<g>
	<path d="M357,691.1c-86.7,0-168.2-33.8-229.5-95s-95-142.8-95-229.5s33.8-168.2,95-229.5c61.3-61.3,142.8-95,229.5-95
		c86.7,0,168.2,33.8,229.5,95c61.3,61.3,95,142.8,95,229.5s-33.8,168.2-95,229.5S443.7,691.1,357,691.1z"/>
	<path class="st0" d="M357,74.6c39.4,0,77.7,7.7,113.6,22.9c34.8,14.7,66,35.8,92.8,62.6c26.8,26.8,47.9,58.1,62.6,92.8
		c15.2,36,22.9,74.2,22.9,113.6s-7.7,77.7-22.9,113.6c-14.7,34.8-35.8,66-62.6,92.8c-26.8,26.8-58.1,47.9-92.8,62.6
		c-36,15.2-74.2,22.9-113.6,22.9s-77.7-7.7-113.6-22.9c-34.8-14.7-66-35.8-92.8-62.6c-26.8-26.8-47.9-58.1-62.6-92.8
		C72.7,444.3,65,406.1,65,366.6S72.7,289,87.9,253c14.7-34.8,35.8-66,62.6-92.8c26.8-26.8,58.1-47.9,92.8-62.6
		C279.3,82.4,317.6,74.6,357,74.6 M357,9.6C159.8,9.6,0,169.5,0,366.6s159.8,357,357,357s357-159.8,357-357S554.2,9.6,357,9.6
		L357,9.6z"/>
</g>
<g>
	<path class="st0" d="M360.4,424.9c11,22,27.2,39.8,48.6,53.3c21.4,13.5,44.8,20.3,70.2,20.3v44.3c-38,0-72.2-10.9-102.5-32.8
		c-30.3-21.8-51.8-50.2-64.3-85.1h-7.5v117.8h-44.3V189.2h101.3c32.4,0,60,11.5,83,34.6c22.9,23.1,34.4,50.8,34.4,83.2
		c0,32.7-11.5,60.5-34.6,83.4C421.5,413.4,393.4,424.9,360.4,424.9z M304.8,380.6h57v-0.5c20.1,0,37.4-7.1,51.9-21.4
		c14.5-14.3,21.7-31.5,21.7-51.6c0-20.1-7.2-37.3-21.4-51.6c-14.3-14.3-31.7-21.4-52.1-21.4v-0.5h-57V380.6z"/>
</g>
<g>
</g>
<g>
</g>
<g>
</g>
<g>
</g>
<g>
</g>
<g>
</g>
<g>
</g>
<g>
</g>
<g>
</g>
<g>
</g>
<g>
</g>
<g>
</g>
<g>
</g>
<g>
</g>
<g>
</g>
</svg>
